Patient4_TMGait_0pt7_02_left_27_EMG.mot
version=1
nRows=37
nColumns=33
inDegrees=no
endheader
time	1LAddLong	2LGlutMax	3LGlutMed	4LIliopsoas	5LSemiMemb	6LBicFemLong	7LRecFem	8LVastMed	9LVastLat	10LGasMed	11LTibAnt	12lTibPost	13LPeroneusLong	14LSol	15LExtDigLong	16LFlexDigLong	17RAddLong	18RGlutMax	19RGlutMed	20RIliopsoas	21RSemiMemb	22RBicFemLong	23RRecFem	24RVastMed	25RVastLat	26RGasMed	27RTibAnt	28RTibPost	29RPeroneusLong	30RSol	31RExtDigLong	32RFlexDigLong
31.157	-0.021667	1.1269	0.071411	0.020142	-0.1181	0.1413	0.36377	0	-0.22888	-0.059357	0.016327	0.011749	-0.018158	-0.06134	0.020905	0.14938	-0.04364	0.87036	-0.043945	-0.11475	0.12817	0.24643	0.39536	-0.034027	0.11505	0.014038	-0.93704	-0.045471	0.21286	-0.45914	0.005646	0.003357
31.158	-0.03006	1.0918	0.11185	0.004272	-0.12482	0.35187	0.40192	-0.002899	-0.24963	-0.32944	0.033569	0.034332	-0.079346	0.16769	0.066223	0.012207	-0.06897	0.84412	-0.06958	-0.13473	0.13382	0.21133	0.4248	-0.033722	0.10727	0.011292	-1.1566	-0.045929	0.1738	-0.37109	0.000458	-0.000763
31.159	-0.014343	1.0675	0.028381	0.019989	-0.15625	0.36011	0.27252	0.005493	-0.27252	-0.22858	0.038452	0.018311	-0.063477	0.18768	0.011597	-0.059509	-0.035095	0.86121	-0.06134	-0.10605	0.1329	0.10223	0.47134	-0.010376	0.095673	0.01358	-0.45929	-0.042114	0.01297	-0.24307	0.000153	0.005798
31.16	0.023193	1.1385	0.10971	0.01358	-0.067139	0.28351	0.084991	0.018921	-0.34622	0.16434	0.021667	0.010529	-0.008545	0.18631	-0.007477	0.29907	0.031738	0.8609	0.098419	-0.04364	0.13107	0.013275	0.50842	0.005188	0.065765	0.010986	-0.43167	-0.041962	-0.049896	-0.098267	-0.000305	0.002289
31.161	0.029907	1.123	0.20462	0.014801	-0.063934	0.13763	-0.056915	0.031281	-0.34241	0.24933	-0.004578	0.024719	0.014954	0.13153	0.032349	0.054016	0.021057	0.83527	0.13092	-0.003204	0.10315	-0.028381	0.52612	0.010223	0.055695	0.007019	-0.33478	-0.035858	-0.063324	-0.098572	-0.002441	-0.001526
31.162	0.031891	1.0814	0.092926	0.011292	0.021667	0.13702	-0.15366	0.04776	-0.31632	0.12344	-0.15182	0.034027	0.035706	0.035858	0.034485	-0.15137	0.027466	0.77713	-0.09613	0.023041	0.10376	-0.059052	0.50751	0.041656	0.05188	0.008087	-0.007172	-0.032654	-0.06134	-0.21576	0.002747	-0.003204
31.163	0.014801	1.0596	0.020905	0.032196	0.041809	0.20416	-0.26749	0.034943	-0.22598	0.002747	-0.17975	0.040436	0.040283	0.095062	-0.006409	0.041351	0.035706	0.81787	-0.28671	0.05188	0.089417	-0.05188	0.54306	0.066986	0.036163	0.006256	0.14313	-0.032043	-0.028839	-0.11276	-0.001526	-0.011902
31.164	-0.027161	1.1494	0.070953	0.03006	-0.006104	0.069733	-0.35523	-0.009613	-0.15305	-0.032959	-0.14801	0.054474	0.027313	0.21835	-0.012207	0.056915	-0.008698	0.84381	-0.14481	0.045013	0.063782	-0.047302	0.56549	0.089264	0.023041	0.00412	0.15427	-0.022888	-0.003052	-0.010071	0.005646	-0.011444
31.165	-0.00824	1.1755	0.13321	0.021973	-0.090332	-0.26047	-0.41657	-0.023804	-0.058899	-0.091858	-0.12466	0.056	0.021667	0.28992	-0.028381	-0.022888	-0.050812	0.84061	-0.14664	0.073547	0.055389	-0.051727	0.62027	0.09079	0.007172	0.00412	-0.020752	-0.02655	0.077667	0.058136	0.000916	-0.012512
31.166	-0.010681	1.0544	0.19348	0.015411	-0.15549	-0.099335	-0.383	-0.026093	-0.002289	-0.046234	-0.085907	0.050354	-0.003204	0.18326	-0.097351	-0.011139	-0.061646	0.7666	-0.26611	0.22873	0.05249	-0.10407	0.62378	0.038452	-0.020447	0.006104	-0.48309	-0.026093	0.11108	0.071869	0.002594	-0.008392
31.167	0.000458	1.0779	0.10315	0.015564	-0.12924	0.09552	-0.31891	-0.001831	0.15762	-0.046692	0.029755	0.048218	-0.080414	0.056763	-0.10956	-0.011444	-0.042572	0.76385	-0.30243	0.23987	0.036469	-0.11154	0.62988	-0.063171	-0.051422	0.00473	-0.36758	-0.010071	0.061798	0.052032	0.002747	-0.002136
31.168	0.015564	1.0159	0.11093	0.012512	-0.15656	0.15778	-0.31906	0.007782	0.13443	-0.039215	0.08194	0.053101	-0.070953	0.10849	-0.060577	-0.015717	-0.020905	0.83786	-0.36148	0.18555	0.031738	-0.11765	0.63431	-0.19653	-0.070343	-0.000763	0.025177	-0.016937	-0.026855	0.023956	0.000153	-0.00351
31.169	0.023041	0.97565	0.079498	0.020294	-0.1149	0.12985	-0.43274	0.00412	0.031433	0.075531	0.17578	0.054321	-0.10651	0.078888	-0.003967	-0.006866	0.012054	0.802	-0.30228	0.10727	0.011597	-0.14679	0.62546	-0.27756	-0.085449	0	0.066376	-0.011749	-0.058594	-0.004425	-0.000305	-0.001068
31.17	0.029449	0.77621	-0.085297	0.016327	-0.14633	0.27069	-0.5191	0.00061	-0.00412	0.18463	0.18051	0.062866	-0.12711	0.096436	0.043488	-0.024109	0.04715	0.75745	-0.3035	0.073242	-0.003052	-0.15411	0.63141	-0.37231	-0.082092	-0.001678	0.012512	-0.010834	-0.0383	-0.032806	0.002899	-0.007629
31.171	0.031891	0.69748	-0.11459	0.007935	-0.17578	0.03006	-0.5394	-0.003662	0.005493	0.28809	0.066986	0.052032	-0.001526	0.085754	0.016785	-0.030365	0.071411	0.75607	-0.2034	0.079346	-0.00412	-0.16663	0.55878	-0.41443	-0.079193	-0.005798	0.02533	-0.008545	0.038147	-0.051422	0.004578	-0.007935
31.172	0.045166	0.70801	-0.040436	0.010529	-0.097351	-0.098572	-0.5246	-0.016937	0.069885	0.27069	0.015564	0.055542	-0.033875	0.061188	0.033722	-0.037842	0.085297	0.80734	-0.12207	0.046844	-0.029907	-0.19943	0.57342	-0.27252	-0.065613	0.005798	0.014343	-0.009155	0.014343	-0.027618	0.002441	-0.006714
31.173	0.056763	0.78888	-0.01297	0.035553	0.077972	0.002441	-0.63049	-0.016937	0.16922	0.18417	-0.011902	0.049286	-0.014496	0.13275	0.018616	-0.038605	0.1329	0.79651	0.009613	-0.009155	-0.022278	-0.21744	0.6012	-0.23468	-0.059814	0.007324	0.005493	-0.008087	0.008087	0.015564	0.004425	0.000763
31.174	0.058899	0.7782	-0.12421	0.023499	0.13473	0.13321	-0.52231	-0.020752	0.22812	-0.062408	-0.03006	0.043793	0.068359	0.20203	0.036011	-0.046234	0.17273	0.69687	-0.13306	0.03067	-0.020447	-0.19394	0.62607	-0.22537	-0.06012	0.003662	0.034943	-0.009918	-0.002594	0.056458	0.001984	0.002441
31.175	0.023804	0.84335	-0.047455	0.012665	0.12573	-0.01358	-0.44067	0.000305	0.26627	-0.13458	-0.025635	0.041199	0.1442	0.14954	0.000305	-0.021973	0.14938	0.62134	-0.2211	0.014496	-0.013885	-0.15472	0.70343	-0.19394	-0.045166	0.010223	0.054321	-0.00824	-0.010986	0.0737	-0.005798	0.000916
31.176	0.024414	1.0451	0.001373	0.041046	0.09903	-0.12222	-0.37567	0.0177	0.15488	-0.16968	0.001678	0.084229	0.27893	0.044556	-0.023804	0.002136	0.058899	0.61233	-0.13702	-0.088501	-0.014343	-0.10071	0.66238	-0.14038	-0.045624	0.002747	0.070801	-0.00351	-0.028992	0.028839	0.000763	-0.005798
31.177	0.012817	1.1873	-0.060577	0.006409	0.068817	-0.33218	-0.34683	0.008698	-0.13748	-0.11993	0.013123	-0.000763	0.29617	-0.062866	-0.04303	0.000458	-0.03479	0.6134	0.028381	-0.12009	0.001831	-0.052185	0.62592	-0.024567	-0.020294	0.00473	0.055389	-0.007019	-0.004578	0.038147	-0.001678	-0.000305
31.178	-0.005188	1.2018	-0.084229	0.007782	0.000458	-0.23041	-0.32425	0.011444	-0.11124	-0.009766	0.012817	-0.001373	0.096436	-0.094757	-0.024567	0.005188	-0.031433	0.63278	-0.21301	-0.018005	0.007324	-0.053406	0.6102	-0.028839	-0.010834	0.010071	0.033875	-0.011292	0.039825	0.059357	-0.001221	0.001526
31.179	-0.001831	1.216	-0.1239	0.008087	-0.025787	0.10849	-0.28336	0.001221	0.051117	0.13214	0.018921	0.045166	-0.12009	-0.12558	0.015869	0.005493	-0.016022	0.62531	-0.36026	0.10132	-0.005798	-0.059204	0.56427	0.016785	-0.010376	0.00351	0.089264	-0.00351	0.076447	0.046692	0.003662	-0.002289
31.18	-0.005798	1.2544	-0.13062	0.007782	-0.026093	0.43366	-0.23468	0.001221	-0.00061	0.19318	0.002899	0.006561	-0.15823	-0.24475	0.017395	0.007019	-0.032196	0.49667	-0.38528	0.032806	-0.025024	-0.12573	0.53741	-0.083923	-0.027924	0.003357	0.16434	-0.00473	0.015259	0.070953	0.001373	-0.009766
31.181	-0.03067	1.3489	-0.27832	0.00473	-0.031586	0.59036	-0.19379	0.000916	-0.03479	0.13947	-0.015564	-0.009766	0.045929	-0.18768	0.011749	-0.00946	-0.046997	0.43121	-0.59784	-0.050049	0.012207	-0.11475	0.49423	-0.093842	-0.009766	-0.000458	0.29511	-0.004578	-0.16541	0.030518	0.00412	-0.007019
31.182	-0.02243	1.4665	-0.39475	-0.011597	-0.078888	0.41901	-0.22018	0.001526	0.020905	0.040436	-0.031433	-0.008392	0.22949	-0.26398	-0.062866	-0.016022	-0.045471	0.44678	-0.48691	-0.057831	0.05249	-0.069122	0.52033	-0.10513	-0.02655	0.003967	0.37796	-0.003052	-0.21896	0.016785	-0.000916	-0.001373
31.183	-0.000763	1.5712	-0.23926	-0.003357	-0.16296	0.24963	-0.24216	-0.006561	0.068207	-0.16235	-0.036011	-0.009918	0.27206	-0.011902	-0.057373	-0.017242	-0.006714	0.39993	-0.32684	0.026703	0.081787	-0.001831	0.47348	-0.10376	-0.021057	0.000153	-0.056763	-0.007782	-0.11643	0.031128	0.000916	-0.007019
31.184	0.018768	1.6069	0.085297	0.033112	-0.14084	0.096588	-0.19608	0.006256	0.10803	-0.20508	-0.025024	-0.017853	-0.1741	0.13519	-0.010529	-0.022583	-0.014954	0.35736	-0.26352	0.075226	0.094299	0.086975	0.45563	-0.045624	-0.00061	-0.010223	-0.18738	-0.005341	-0.12054	0.006104	0.001373	-0.00412
31.185	0.013275	1.6048	0.19486	0.034332	-0.10696	0.32776	-0.14313	0.007019	0.11322	-0.14008	-0.028076	-0.019073	-0.3717	0.22263	-0.000763	-0.022888	0.006256	0.39627	-0.13062	0.097656	0.075684	0.18082	0.46845	0.010529	0.000458	-0.018616	-0.31158	-0.006866	-0.048676	-0.024719	0.004883	-0.009766
31.186	-0.002136	1.405	0.15701	0.016022	-0.060577	0.52033	-0.17395	0.015106	0.14816	-0.052948	-0.015411	-0.02655	-0.21561	0.1297	0.083008	-0.028076	0.035248	0.29373	-0.22568	0.17944	0.061035	0.12528	0.457	-0.089417	-0.018158	-0.015259	-0.26733	-0.005798	0.020142	-0.076752	-0.000458	-0.009003
31.187	-0.001068	1.2383	0.13062	0.004272	-0.057526	0.17548	-0.26581	0.011292	0.22049	-0.033112	-0.006256	-0.015717	0.089569	-0.002136	0.054474	-0.032043	0.045471	0.24551	-0.50339	0.14221	0.068817	0.16205	0.39398	-0.071106	-0.017242	-0.010529	-0.21515	-0.00885	0.032043	-0.1384	-0.000916	-0.000153
31.188	0.019989	0.99884	-0.040894	0.022888	-0.032196	-0.17425	-0.29251	-0.001831	0.4364	0.06012	0.016022	-0.013428	0.15091	-0.049133	-0.015106	-0.032043	0.059052	0.15121	-0.65475	0.070953	0.079803	0.16296	0.40085	-0.010071	0.001526	0.005798	0.43762	-0.004578	0.12558	-0.28	0.001068	0.002136
31.189	0.022278	0.69931	-0.21332	0.007477	0	-0.71594	-0.21561	0.002747	0.53329	0.1648	-0.022583	-0.027924	0.26062	-0.06134	-0.023346	-0.027618	0.12466	0.14801	-0.41718	0.025787	0.099335	0.16815	0.40314	0.033875	0.018463	0.025482	0.76035	-0.000763	0.23651	-0.39612	-0.000458	0.011444
31.19	-0.003967	0.61859	-0.2356	0.000153	-0.03891	-0.7077	-0.081024	0.017242	0.48538	0.12344	0.10635	-0.0383	0.063782	0.016174	0.042419	-0.032806	0.14008	0.09201	-0.26855	0.015411	0.10559	0.15945	0.39719	0.047607	0.011139	0.024719	0.061798	0	0.12711	-0.32654	-0.001831	0.003052
31.191	-0.007019	0.47058	-0.15762	-0.003357	-0.12528	-0.44342	-0.045776	0.04715	0.45761	-0.03952	0.078735	-0.048065	-0.047455	0.080719	0.26398	-0.011292	0.10407	0.015564	-0.12528	0.043335	0.11032	0.14999	0.45853	-0.003052	0.008698	0.023956	-0.17487	-0.003357	0.19028	-0.1857	-0.000458	0.005035
31.192	-0.005188	0.3743	-0.13489	-0.003662	-0.054932	-0.22995	-0.12985	0.074005	0.51239	-0.10284	0.045166	-0.043793	-0.082397	0.13306	-0.096741	-0.002136	0.040588	-0.14191	-0.25833	0.0914	0.12726	0.13504	0.47272	-0.00473	-0.001678	0.020752	-1.2991	-0.007324	0.30594	-0.045471	0.001373	0.007935
31.193	0.021667	0.19852	-0.19836	0.027161	0.054169	-0.43716	-0.18066	0.052795	0.49133	-0.28336	-0.11963	-0.041199	-0.22171	0.2298	0.10346	-0.009308	0.003967	-0.298	-0.25864	-0.015259	0.11826	0.089722	0.49225	0.033417	-0.023651	0.00824	-1.163	-0.01236	0.25909	0.12009	-0.001526	0.005341
